<svg width="17" height="17" viewBox="0 0 17 17" fill="none" xmlns="http://www.w3.org/2000/svg">
<path d="M16.9452 5.01763C16.9357 4.30384 16.8019 3.59714 16.5497 2.92915C16.331 2.36571 15.997 1.854 15.569 1.42672C15.141 0.999439 14.6285 0.665987 14.0641 0.447666C13.4036 0.200137 12.7058 0.0662935 12.0004 0.0518351C11.0923 0.0113095 10.8044 0 8.49906 0C6.19375 0 5.89827 6.31965e-08 4.99672 0.0518351C4.29169 0.0663998 3.59423 0.200242 2.93403 0.447666C2.36956 0.665834 1.85692 0.999233 1.42891 1.42653C1.0009 1.85383 0.666943 2.36562 0.448412 2.92915C0.199974 3.58805 0.066198 4.2845 0.0528654 4.98841C0.0122723 5.896 0 6.18345 0 8.48492C0 10.7864 -7.03353e-09 11.0804 0.0528654 11.9814C0.0670258 12.6864 0.200133 13.3819 0.448412 14.0426C0.66731 14.6059 1.00151 15.1175 1.42967 15.5446C1.85782 15.9718 2.37051 16.305 2.93497 16.5231C3.59337 16.7806 4.29095 16.924 4.99767 16.9472C5.90676 16.9877 6.19469 17 8.5 17C10.8053 17 11.1008 17 12.0023 16.9472C12.7077 16.9334 13.4055 16.7998 14.066 16.5523C14.6302 16.3338 15.1426 16.0002 15.5706 15.573C15.9986 15.1457 16.3327 14.6341 16.5516 14.0709C16.7999 13.4111 16.933 12.7156 16.9471 12.0097C16.9877 11.1031 17 10.8156 17 8.5132C16.9981 6.21172 16.9981 5.91956 16.9452 5.01763ZM8.49339 12.8372C6.08235 12.8372 4.12916 10.8872 4.12916 8.48021C4.12916 6.07318 6.08235 4.12324 8.49339 4.12324C9.65086 4.12324 10.7609 4.58228 11.5794 5.39937C12.3978 6.21646 12.8576 7.32467 12.8576 8.48021C12.8576 9.63575 12.3978 10.744 11.5794 11.5611C10.7609 12.3781 9.65086 12.8372 8.49339 12.8372ZM13.0313 4.97805C12.4677 4.97805 12.0137 4.52378 12.0137 3.96208C12.0137 3.82872 12.04 3.69667 12.0911 3.57347C12.1422 3.45026 12.2171 3.33831 12.3116 3.24402C12.406 3.14972 12.5182 3.07492 12.6416 3.02389C12.765 2.97285 12.8973 2.94659 13.0308 2.94659C13.1644 2.94659 13.2967 2.97285 13.4201 3.02389C13.5435 3.07492 13.6557 3.14972 13.7501 3.24402C13.8446 3.33831 13.9195 3.45026 13.9706 3.57347C14.0217 3.69667 14.048 3.82872 14.048 3.96208C14.048 4.52378 13.593 4.97805 13.0313 4.97805Z" fill="#B1B1B1"/>
<path d="M8.49339 11.3104C10.0591 11.3104 11.3283 10.0433 11.3283 8.48021C11.3283 6.91714 10.0591 5.65002 8.49339 5.65002C6.92772 5.65002 5.65849 6.91714 5.65849 8.48021C5.65849 10.0433 6.92772 11.3104 8.49339 11.3104Z" fill="#B1B1B1"/>
</svg>
