<svg width="106" height="51" viewBox="0 0 106 51" fill="none" xmlns="http://www.w3.org/2000/svg">
<ellipse cx="16.5" cy="34.7695" rx="16.5" ry="16" fill="white"/>
<ellipse cx="16.5" cy="34.7695" rx="13.5" ry="13" fill="#323232"/>
<path d="M6.97852 12.3528L9.55264 7.49731L12.1268 12.3528L10.8397 13.6381V15.4946H8.12257V13.4953L6.97852 12.3528Z" fill="#FF820E"/>
<path d="M20.7246 12.3528L23.2987 7.49731L25.8729 12.3528L24.5858 13.6381V15.4946H21.8687V13.4953L20.7246 12.3528Z" fill="#FF820E"/>
<path fill-rule="evenodd" clip-rule="evenodd" d="M0.28125 5.4883L4.47883 19.6933C8.48479 16.7853 12.652 15.7948 16.4258 15.8277C20.1995 15.7948 24.3667 16.7853 28.3727 19.6933L32.5703 5.4883L27.8307 7.85774C28.239 8.59548 28.4714 9.44407 28.4714 10.3469C28.4714 13.1902 26.1664 15.4952 23.3231 15.4952C20.4798 15.4952 18.1749 13.1902 18.1749 10.3469C18.1749 8.65502 18.991 7.15372 20.2511 6.21528L16.4258 0L12.6002 6.21565C13.86 7.15412 14.6759 8.65524 14.6759 10.3469C14.6759 13.1902 12.371 15.4952 9.52769 15.4952C6.68438 15.4952 4.37943 13.1902 4.37943 10.3469C4.37943 9.44396 4.61191 8.59526 5.02028 7.85746L0.28125 5.4883Z" fill="url(#paint0_linear)"/>
<path fill-rule="evenodd" clip-rule="evenodd" d="M10.8436 27.4964C11.4477 27.0807 12.103 26.7303 12.7986 26.4559C13.3948 31.5599 9.70755 38.3526 8.35144 40.3401C8.00326 39.8291 7.70518 39.2831 7.464 38.7089C9.73825 35.8946 10.6256 30.5655 10.8436 27.4964ZM14.9741 25.8738C15.4326 28.3487 15.2384 33.5339 9.53996 41.7625C9.93599 42.1523 10.3669 42.5088 10.8277 42.8273C15.0798 38.9789 18.0808 30.5616 18.4237 25.9576C17.7889 25.8311 17.1314 25.7646 16.4579 25.7646C15.9534 25.7646 15.4579 25.8019 14.9741 25.8738ZM13.8403 44.2241C13.392 44.1028 12.9568 43.951 12.5372 43.7713C16.1516 39.4427 19.4446 30.8981 19.5344 26.2468C20.7056 26.6257 21.7775 27.215 22.7021 27.9685C22.641 35.3486 17.3831 41.3861 13.8403 44.2241ZM15.1593 44.4866C15.5841 44.5416 16.0176 44.57 16.4579 44.57C21.8184 44.57 26.1639 40.3603 26.1639 35.1673C26.1639 33.7573 25.8436 32.4198 25.2695 31.2193C24.7826 35.6347 19.0459 41.3342 15.1593 44.4866ZM9.9583 28.1841C7.98945 29.905 6.75195 32.3961 6.75195 35.1673C6.75195 35.856 6.82838 36.5274 6.97346 37.174C8.92308 34.618 9.72384 30.7288 9.9583 28.1841Z" fill="#FF0000"/>
<path d="M45.9822 20.2364C46.2906 18.7884 47.5313 18.0643 49.7044 18.0643H57.4021L56.9837 20.2364H50.4092L49.9908 22.3434L53.1513 22.9298C55.2584 23.3136 56.2385 23.8566 56.0917 24.5589L55.4199 27.8713C55.1262 29.276 53.9038 29.9819 51.7528 29.9891H44L44.4185 27.8279H51.0259L51.4774 25.721L48.2838 25.1236C46.1621 24.7327 45.171 24.2005 45.3105 23.5272L45.9822 20.2364Z" fill="white"/>
<path d="M67.2472 18.0643H71.6632L69.714 27.8822C69.4057 29.2796 68.1539 29.9855 65.9588 30H60.4526C58.2281 29.9783 57.2737 29.2579 57.5893 27.8388L58.8998 21.3659L57.7986 21.3768L58.2501 19.1395L63.7343 19.1504L61.9943 27.8605H65.254L67.2472 18.0643Z" fill="white"/>
<path d="M73.4913 20.2364C73.7996 18.7884 75.0404 18.0643 77.2135 18.0643H84.9112L84.4927 20.2364H77.9183L77.4998 22.3434L80.6604 22.9298C82.7674 23.3136 83.7475 23.8566 83.6007 24.5589L82.929 27.8713C82.6353 29.276 81.4129 29.9819 79.2618 29.9891H71.5091L71.9275 27.8279H78.535L78.9865 25.721L75.7929 25.1236C73.6712 24.7327 72.68 24.2005 72.8195 23.5272L73.4913 20.2364Z" fill="white"/>
<path d="M87.1577 17H91.6178L90.5055 22.4194H93.8092L94.7012 18.1078L99.0732 18.1186L96.6504 29.9783H92.2895L93.3467 24.548L90.1091 24.5589L89.4483 27.8931L85.0323 27.8822L85.7261 24.5589H84.5808L85.0323 22.3651H86.0675L87.1577 17Z" fill="white"/>
<path d="M101.584 18.0426H106L103.577 29.9783H99.1613L101.584 18.0426Z" fill="white"/>
<path d="M48 33.1211H52.2173L53.4603 39.9876L54.6701 37.0232L54.0264 33.1211H58.2437L59.4867 39.9876L61.6509 35.3201L59.8308 35.2985L60.5521 33.175L66.5341 33.1642L62.8606 42.5207H60.3635L60.6853 44.9892H56.4236L55.9464 42.5423L54.2261 42.5315L54.659 44.9892H50.3972L48 33.1211Z" fill="#FF0000"/>
<path d="M67.7993 35.2877C68.0879 33.872 69.342 33.1642 71.5616 33.1642H77.1219C79.3415 33.1642 80.3034 33.8756 80.0074 35.2985L78.4647 42.8333C78.1614 44.2706 76.8925 44.9892 74.658 44.9892H69.1311C66.9262 44.982 65.9644 44.2778 66.2456 42.8765L67.7993 35.2877ZM72.2497 35.3201L70.696 42.8657H74.0143L75.5792 35.3201H72.2497Z" fill="#FF0000"/>
<path d="M82.8929 32H87.3766L90.4065 38.5539L91.4941 33.1318L96 33.1103L94.0023 42.8226C93.6546 44.2886 92.3894 45.0072 90.2067 44.9784H88.542L86.056 38.2305L84.6354 44.9892L80.185 45L82.8929 32Z" fill="#FF0000"/>
<defs>
<linearGradient id="paint0_linear" x1="16.4258" y1="0" x2="16.4258" y2="19.6933" gradientUnits="userSpaceOnUse">
<stop stop-color="#FFB700"/>
<stop offset="1" stop-color="#FFD600"/>
</linearGradient>
</defs>
</svg>
